<?xml version="1.0" encoding="utf-8"?>
<!-- Generator: Adobe Illustrator 28.0.0, SVG Export Plug-In . SVG Version: 6.00 Build 0)  -->
<svg version="1.1"
	 id="Calque_1" xmlns:inkscape="http://www.inkscape.org/namespaces/inkscape" xmlns:sodipodi="http://sodipodi.sourceforge.net/DTD/sodipodi-0.dtd" xmlns:svg="http://www.w3.org/2000/svg"
	 xmlns="http://www.w3.org/2000/svg" xmlns:xlink="http://www.w3.org/1999/xlink" x="0px" y="0px" viewBox="0 0 1078 243"
	 style="enable-background:new 0 0 1078 243;" xml:space="preserve">
<style type="text/css">
	.st0{fill:#FFFFFF;}
	.st1{font-family:'Montserrat-Medium';}
	.st2{font-size:141.237px;}
	.st3{font-family:'Montserrat-SemiBold';}
</style>
<sodipodi:namedview  bordercolor="#000000" borderopacity="0.25" id="namedview5" inkscape:current-layer="Calque_1" inkscape:cx="683" inkscape:cy="209.55682" inkscape:deskcolor="#d1d1d1" inkscape:pagecheckerboard="0" inkscape:pageopacity="0.0" inkscape:showpageshadow="2" inkscape:window-height="971" inkscape:window-maximized="1" inkscape:window-width="1920" inkscape:window-x="1920" inkscape:window-y="25" inkscape:zoom="0.77306003" pagecolor="#ffffff">
	</sodipodi:namedview>
<path class="st0" d="M119.5,7C55.7,7,4,58.7,4,122.5S55.7,238,119.5,238S235,186.3,235,122.5S183.3,7,119.5,7z M50.3,107
	c3.3-7,11-10.4,17.1-7.5s8.5,10.9,5.3,18s-11,10.4-17.1,7.5C49.4,122.1,47,114.1,50.3,107z M106.3,202.2c-4.5,6.9-18.6,5.6-31.4-2.8
	C62.1,191,55.4,178.6,60,171.7s18.6-5.6,31.4,2.8C104.1,182.9,110.8,195.3,106.3,202.2z M171.9,199.6c-5.2,0-9.4-5.2-9.4-11.5
	s4.2-11.5,9.4-11.5s9.4,5.2,9.4,11.5S177.1,199.6,171.9,199.6z M195.2,115.7c-11.1,13.2-38.4,8.6-60.8-10.3
	c-22.5-18.9-31.7-44.9-20.5-58.2c11.1-13.2,38.4-8.6,60.8,10.3S206.3,102.5,195.2,115.7z"/>
<text transform="matrix(1 0 0 1 291.2344 180.8232)" class="st0 st1 st2">Moon </text>
<text transform="matrix(1 0 0 1 739.6344 180.8232)" class="st0 st3 st2">Dast</text>
</svg>
