<?xml version="1.0" encoding="utf-8"?>
<!-- Generator: Adobe Illustrator 28.0.0, SVG Export Plug-In . SVG Version: 6.00 Build 0)  -->
<svg version="1.1"
	 id="Calque_1" xmlns:sodipodi="http://sodipodi.sourceforge.net/DTD/sodipodi-0.dtd" xmlns:svg="http://www.w3.org/2000/svg" xmlns:inkscape="http://www.inkscape.org/namespaces/inkscape"
	 xmlns="http://www.w3.org/2000/svg" xmlns:xlink="http://www.w3.org/1999/xlink" x="0px" y="0px" viewBox="0 0 1578.2 243"
	 style="enable-background:new 0 0 1578.2 243;" xml:space="preserve">
<style type="text/css">
	.st0{fill:#FFFFFF;}
	.st1{enable-background:new    ;}
</style>
<sodipodi:namedview  bordercolor="#000000" borderopacity="0.25" id="namedview5" inkscape:current-layer="Calque_1" inkscape:cx="683" inkscape:cy="209.55682" inkscape:deskcolor="#d1d1d1" inkscape:pagecheckerboard="0" inkscape:pageopacity="0.0" inkscape:showpageshadow="2" inkscape:window-height="971" inkscape:window-maximized="1" inkscape:window-width="1920" inkscape:window-x="1920" inkscape:window-y="25" inkscape:zoom="0.77306003" pagecolor="#ffffff">
	</sodipodi:namedview>
<path class="st0" d="M120.6,4.5C56.8,4.5,5.1,56.2,5.1,120s51.7,115.5,115.5,115.5S236.1,183.8,236.1,120S184.4,4.5,120.6,4.5z
	 M51.4,104.5c3.3-7,11-10.4,17.1-7.5c6.1,2.9,8.5,10.9,5.3,18s-11,10.4-17.1,7.5C50.5,119.6,48.1,111.6,51.4,104.5z M107.4,199.7
	c-4.5,6.9-18.6,5.6-31.4-2.8c-12.8-8.4-19.5-20.8-14.9-27.7s18.6-5.6,31.4,2.8C105.2,180.4,111.9,192.8,107.4,199.7z M173,197.1
	c-5.2,0-9.4-5.2-9.4-11.5s4.2-11.5,9.4-11.5s9.4,5.2,9.4,11.5S178.2,197.1,173,197.1z M196.3,113.2c-11.1,13.2-38.4,8.6-60.8-10.3
	C113,84,103.8,58,115,44.7c11.1-13.2,38.4-8.6,60.8,10.3S207.4,100,196.3,113.2z"/>
<g class="st1">
	<path class="st0" d="M298.3,201.2V37.4h19.2l73.5,123.8h-10.3l72.5-123.8h19.2l0.2,163.8h-22.5l-0.2-128.4h5.4l-64.6,108.6h-10.8
		l-65-108.6h5.8v128.4H298.3z"/>
	<path class="st0" d="M571.5,202.6c-12.5,0-23.6-2.7-33.2-8.2c-9.7-5.5-17.3-13-22.9-22.6c-5.6-9.6-8.4-20.5-8.4-32.6
		c0-12.3,2.8-23.2,8.4-32.8c5.6-9.5,13.3-17,22.9-22.3c9.7-5.4,20.7-8.1,33.2-8.1c12.3,0,23.4,2.7,33.1,8.1
		c9.7,5.4,17.4,12.8,22.9,22.2c5.5,9.4,8.3,20.4,8.3,32.9c0,12.3-2.8,23.2-8.3,32.8c-5.5,9.5-13.2,17-22.9,22.5
		C594.9,199.9,583.9,202.6,571.5,202.6z M571.5,182.9c8,0,15.1-1.8,21.4-5.4c6.3-3.6,11.3-8.7,14.9-15.3c3.6-6.6,5.4-14.3,5.4-23
		c0-8.9-1.8-16.6-5.4-23c-3.6-6.5-8.5-11.5-14.9-15.1c-6.3-3.6-13.5-5.4-21.4-5.4c-8,0-15.1,1.8-21.3,5.4c-6.2,3.6-11.2,8.6-15,15.1
		c-3.7,6.5-5.6,14.2-5.6,23c0,8.7,1.9,16.4,5.6,23c3.7,6.6,8.7,11.7,15,15.3C556.5,181.1,563.6,182.9,571.5,182.9z"/>
	<path class="st0" d="M720.1,202.6c-12.5,0-23.6-2.7-33.2-8.2c-9.7-5.5-17.3-13-22.9-22.6c-5.6-9.6-8.4-20.5-8.4-32.6
		c0-12.3,2.8-23.2,8.4-32.8c5.6-9.5,13.3-17,22.9-22.3c9.7-5.4,20.7-8.1,33.2-8.1c12.3,0,23.4,2.7,33.1,8.1
		c9.7,5.4,17.4,12.8,22.9,22.2c5.5,9.4,8.3,20.4,8.3,32.9c0,12.3-2.8,23.2-8.3,32.8c-5.5,9.5-13.2,17-22.9,22.5
		C743.5,199.9,732.4,202.6,720.1,202.6z M720.1,182.9c8,0,15.1-1.8,21.4-5.4c6.3-3.6,11.3-8.7,14.9-15.3c3.6-6.6,5.4-14.3,5.4-23
		c0-8.9-1.8-16.6-5.4-23c-3.6-6.5-8.5-11.5-14.9-15.1c-6.3-3.6-13.5-5.4-21.4-5.4c-8,0-15.1,1.8-21.3,5.4c-6.2,3.6-11.2,8.6-15,15.1
		c-3.7,6.5-5.6,14.2-5.6,23c0,8.7,1.9,16.4,5.6,23c3.7,6.6,8.7,11.7,15,15.3C705.1,181.1,712.2,182.9,720.1,182.9z"/>
	<path class="st0" d="M881.8,76c10.1,0,19.1,2,26.8,5.8c7.7,3.9,13.8,9.8,18.1,17.8c4.4,8,6.5,18,6.5,30.2v71.4h-22.5v-68.8
		c0-12-2.9-21.1-8.8-27.1c-5.8-6.1-14.1-9.1-24.7-9.1c-8,0-14.9,1.6-20.8,4.7c-5.9,3.1-10.5,7.7-13.7,13.8
		c-3.2,6.1-4.8,13.6-4.8,22.7v63.9h-22.5v-124h21.5v33.5l-3.5-8.9c4.1-8.1,10.3-14.4,18.7-19C860.7,78.3,870.5,76,881.8,76z"/>
</g>
<g class="st1">
	<path class="st0" d="M1038.5,201.1V37.3h71.6c17.8,0,33.4,3.4,46.8,10.3c13.4,6.9,23.9,16.4,31.4,28.5c7.5,12.2,11.2,26.5,11.2,43
		c0,16.4-3.7,30.7-11.2,42.9c-7.5,12.2-17.9,21.8-31.4,28.7c-13.4,6.9-29,10.3-46.8,10.3H1038.5z M1068.9,175.3h39.8
		c12.3,0,23-2.3,31.9-7c9-4.7,15.9-11.2,20.8-19.7c4.9-8.4,7.4-18.2,7.4-29.5c0-11.4-2.5-21.3-7.4-29.6
		c-4.9-8.3-11.9-14.9-20.8-19.5c-9-4.7-19.6-7-31.9-7h-39.8V175.3z"/>
	<path class="st0" d="M1266.6,202.7c-9.4,0-17.5-1.6-24.6-4.8c-7-3.2-12.4-7.6-16.3-13.3c-3.8-5.7-5.7-12.1-5.7-19.3
		c0-7,1.7-13.3,5-19c3.4-5.6,8.9-10.1,16.5-13.3c7.6-3.3,17.8-4.9,30.4-4.9h36.3v19.4h-34.2c-10,0-16.7,1.6-20.1,4.8
		c-3.4,3.2-5.1,7.1-5.1,11.8c0,5.3,2.1,9.5,6.3,12.6c4.2,3.1,10.1,4.7,17.5,4.7c7.2,0,13.6-1.6,19.3-4.9c5.7-3.3,9.8-8.1,12.3-14.5
		l4.9,17.5c-2.8,7.3-7.8,13-15.1,17.1C1286.8,200.7,1277.7,202.7,1266.6,202.7z M1305.9,201.1v-25.3l-1.6-5.4v-44.2
		c0-8.6-2.6-15.2-7.7-20c-5.1-4.8-12.9-7.1-23.4-7.1c-7,0-13.9,1.1-20.7,3.3c-6.8,2.2-12.5,5.2-17.2,9.1l-11.5-21.3
		c6.7-5.1,14.7-9,24-11.6c9.3-2.6,18.9-3.9,28.9-3.9c18.1,0,32.1,4.3,42,13c9.9,8.7,14.9,22,14.9,40.1v73.2H1305.9z"/>
	<path class="st0" d="M1409.5,202.7c-10.5,0-20.5-1.4-30.1-4.1c-9.6-2.7-17.2-6-22.8-9.9l11.2-22.2c5.6,3.6,12.3,6.6,20.1,8.9
		c7.8,2.3,15.6,3.5,23.4,3.5c9.2,0,15.9-1.2,20-3.7c4.1-2.5,6.2-5.8,6.2-10.1c0-3.4-1.4-6-4.2-7.8c-2.8-1.8-6.5-3.2-11-4.1
		c-4.5-0.9-9.6-1.8-15.1-2.6c-5.5-0.8-11.1-1.8-16.6-3.2c-5.5-1.3-10.6-3.3-15.1-5.8c-4.5-2.6-8.2-6-11-10.4
		c-2.8-4.4-4.2-10.1-4.2-17.3c0-8,2.3-14.9,6.8-20.7c4.5-5.8,10.9-10.4,19.1-13.6c8.2-3.2,17.9-4.8,29.1-4.8
		c8.4,0,16.9,0.9,25.5,2.8c8.6,1.9,15.7,4.5,21.3,8l-11.2,22.2c-5.9-3.6-11.9-6-17.9-7.4c-6-1.3-12-2-17.9-2c-8.9,0-15.5,1.3-19.8,4
		c-4.3,2.7-6.4,6-6.4,10.1c0,3.7,1.4,6.6,4.2,8.4c2.8,1.9,6.5,3.4,11,4.4c4.5,1.1,9.6,2,15.1,2.7c5.5,0.7,11,1.8,16.5,3.2
		c5.5,1.4,10.5,3.3,15.1,5.7c4.6,2.4,8.3,5.8,11.1,10.2c2.8,4.4,4.2,10.1,4.2,17.1c0,7.8-2.3,14.6-6.9,20.4
		c-4.6,5.8-11.1,10.3-19.5,13.5C1431.3,201.1,1421.2,202.7,1409.5,202.7z"/>
	<path class="st0" d="M1474.8,100.5V77.1h83.3v23.4H1474.8z M1538.4,202.7c-13.7,0-24.3-3.5-31.8-10.6c-7.5-7.1-11.2-17.6-11.2-31.5
		V48.5h29.2v111.4c0,5.9,1.5,10.5,4.6,13.8c3,3.3,7.3,4.9,12.8,4.9c6.5,0,12-1.7,16.4-5.1l8.2,20.8c-3.4,2.8-7.6,4.9-12.6,6.3
		C1548.9,202,1543.7,202.7,1538.4,202.7z"/>
</g>
</svg>
