<?xml version="1.0" encoding="utf-8"?>
<!-- Generator: Adobe Illustrator 28.0.0, SVG Export Plug-In . SVG Version: 6.00 Build 0)  -->
<svg version="1.1"
	 id="Calque_1" xmlns:sodipodi="http://sodipodi.sourceforge.net/DTD/sodipodi-0.dtd" xmlns:inkscape="http://www.inkscape.org/namespaces/inkscape" xmlns:svg="http://www.w3.org/2000/svg" inkscape:version="1.4 (e7c3feb1, 2024-10-09)" sodipodi:docname="logo moondust v1.svg"
	 xmlns="http://www.w3.org/2000/svg" xmlns:xlink="http://www.w3.org/1999/xlink" x="0px" y="0px" viewBox="0 0 1366 419"
	 style="enable-background:new 0 0 1366 419;" xml:space="preserve">
<style type="text/css">
	.st0{fill:#FFFFFF;}
	.st1{enable-background:new    ;}
	.st2{font-family:'Montserrat-Medium';}
	.st3{font-size:141.237px;}
	.st4{font-family:'Montserrat-SemiBold';}
</style>
<sodipodi:namedview  bordercolor="#000000" borderopacity="0.25" id="namedview5" inkscape:current-layer="Calque_1" inkscape:cx="683" inkscape:cy="209.55682" inkscape:deskcolor="#d1d1d1" inkscape:pagecheckerboard="0" inkscape:pageopacity="0.0" inkscape:showpageshadow="2" inkscape:window-height="971" inkscape:window-maximized="1" inkscape:window-width="1920" inkscape:window-x="1920" inkscape:window-y="25" inkscape:zoom="0.77306003" pagecolor="#ffffff">
	</sodipodi:namedview>
<path class="st0" d="M189.5,98C125.7,98,74,149.7,74,213.5S125.7,329,189.5,329S305,277.3,305,213.5S253.3,98,189.5,98z M120.3,198
	c3.3-7,11-10.4,17.1-7.5s8.5,10.9,5.3,18s-11,10.4-17.1,7.5C119.4,213.1,117,205.1,120.3,198z M176.3,293.2
	c-4.5,6.9-18.6,5.6-31.4-2.8c-12.8-8.4-19.5-20.8-14.9-27.7s18.6-5.6,31.4,2.8C174.1,273.9,180.8,286.3,176.3,293.2z M241.9,290.6
	c-5.2,0-9.4-5.2-9.4-11.5s4.2-11.5,9.4-11.5c5.2,0,9.4,5.2,9.4,11.5S247.1,290.6,241.9,290.6z M265.2,206.7
	c-11.1,13.2-38.4,8.6-60.8-10.3c-22.5-18.9-31.7-44.9-20.5-58.2c11.1-13.2,38.4-8.6,60.8,10.3S276.3,193.5,265.2,206.7z"/>
<text transform="matrix(1 0 0 1 361.2344 271.8232)" class="st1"><tspan x="0" y="0" class="st0 st2 st3">Moon </tspan><tspan x="448.4" y="0" class="st0 st4 st3">Dast</tspan></text>
</svg>
